<svg id="Layer_1" data-name="Layer 1" xmlns="http://www.w3.org/2000/svg" xmlns:xlink="http://www.w3.org/1999/xlink" viewBox="0 0 580.26 205.5"><defs><style>.cls-1{fill:#7c1315;}.cls-2{fill:#333;}</style></defs><title>bhme-logo</title><path class="cls-1" d="M335.27,134.52q0,8.3-12.65,13.8a49.4,49.4,0,0,1-19.52,4.42H296l-4.9-.68-.2-49.3H279.65l11.42-5.44h22.51a21.17,21.17,0,0,1,11,3.13q6,3.6,6,9,0,3.81-5.24,7.21a58.41,58.41,0,0,1-8.7,4.08,22,22,0,0,1,12,3.81Q335.27,128.81,335.27,134.52Zm-14.21-22a8,8,0,0,0-3.4-6.6,11.47,11.47,0,0,0-7.28-2.45l-8.77.34v17.34h7.14a15.69,15.69,0,0,0,8-2.24Q321.06,116.29,321.06,112.49Zm4.69,25.43q0-4.83-4.62-8.43a15.05,15.05,0,0,0-9.32-3.33h-10.2v22.51h9.86a17.75,17.75,0,0,0,9.59-2.58A9.24,9.24,0,0,0,325.75,137.92Z" transform="translate(-54.05 -40.25)"/><path class="cls-1" d="M361.42,132.15c0,7.27-.22,12.46,1,14,1,1.37,2.38,1.73,8.35,1.73,4,0,6.26-.07,8.28-1.15,1.73-.79,3-2.66,3.74-6,.22-.79.36-1.37.94-1.37s.58.36.58,1.37a58.46,58.46,0,0,1-1.51,10.58c-.58,1.87-1.15,1.94-4,1.94-9.94,0-16.63-.43-24.27-.43-3.38,0-7.27.22-11.23.22-1,0-1.58-.14-1.58-.79,0-.43.43-.65,1.44-.65s1.66-.14,2.45-.29c2.59-.43,2.66-1.73,2.88-7.49.14-2.88.22-7.2.22-11.67V119.4c0-11.74-.07-13-.22-15.34-.14-2-.65-3.24-2.45-3.74a13.38,13.38,0,0,0-2.81-.36c-.79,0-1.51-.14-1.51-.72s.72-.72,2.16-.72c4.1,0,7.85.22,10.66.22.65,0,9.58-.22,12.17-.22,1.3,0,1.73.22,1.73.65,0,.65-.72.79-1.73.79a18.46,18.46,0,0,0-2.45.29c-1.94.36-2.45,1.73-2.59,4.25-.14,2.3-.22,3.74-.22,15.63Z" transform="translate(-54.05 -40.25)"/><path class="cls-1" d="M405.63,138.05c-.36,0-.5.14-.65.5l-2.23,5.9a16.09,16.09,0,0,0-1.15,4.61c0,1.37.65,2,2.16,2.16.79.14,1.94.22,2.52.29,1.08,0,1.3.36,1.3.72,0,.58-.58.72-1.51.72-3.24,0-5.69-.22-9.5-.22-.79,0-5.54.22-9.14.22-1,0-1.44-.29-1.44-.72s.5-.72,1.37-.72a19.83,19.83,0,0,0,2.3-.29c2.52-.5,4-2.74,5.47-6.19l19.23-43.49c1.37-3.1,2.16-4.18,3-4.18s1.37,1,2.59,3.6c1.87,4,14,31.61,18.87,42.56,2.45,5.62,4,7.34,6.55,7.7a14.19,14.19,0,0,0,2.3.29c.94,0,1.37.29,1.37.72s-.5.72-1.87.72c-7.06,0-15.27-.14-19.87-.22-1.15,0-1.58-.21-1.58-.65s.36-.72,1-.86,1.08-.65.86-1.3l-4.82-11.45a.6.6,0,0,0-.58-.43Zm14.4-5.76c.43,0,.43-.22.36-.36l-6.34-15.41c-.22-.5-.36-.36-.5,0l-6.12,15.41c-.07.22.07.36.29.36Z" transform="translate(-54.05 -40.25)"/><path class="cls-1" d="M456.53,146c-7.06-6-9.07-13.46-9.07-21.17,0-4.9,1.66-13.83,8.93-19.95,6.19-5.26,13.39-7.42,23.83-7.42a64.58,64.58,0,0,1,10.22.86,59.1,59.1,0,0,0,7.13.94c.79.07.79.5.79.94s-.22,2.3-.36,4.75-.07,6.62-.22,8.42c-.07,1.08-.22,1.73-.86,1.73s-.79-.5-.86-1.51a10.72,10.72,0,0,0-2.74-7.06c-2.52-2.66-7.56-4.54-14.54-4.54-4.25,0-7.78,1-10.58,3.46-4.39,3.82-6.34,10.51-6.34,18.22,0,14.83,8.06,24.77,20.16,24.77,5.9,0,9.58-.5,12.38-3.67a11.18,11.18,0,0,0,2.38-4.82c.36-1.51.58-2,1.15-2s.58.72.58,1.3a101.13,101.13,0,0,1-1.58,10.95,2.34,2.34,0,0,1-1.87,2.09c-2.88,1.15-7.78,1.66-12.38,1.66C473.31,154,464.09,152.38,456.53,146Z" transform="translate(-54.05 -40.25)"/><path class="cls-1" d="M581.9,145.6q-11.22,7.48-15.3,7.48a42.67,42.67,0,0,1-5.78-.34q-1.7-1.09-4.76-3.4l-26.25-24.82-1,.41v25.43l-9.52,2.72v-49.3H505.06a36.79,36.79,0,0,1,10.2-5.1h13.26V120.1a29.27,29.27,0,0,0,12.44-8.3q7.41-8.3,8.43-9.11,5.92-4.49,16.46-5.3a50.1,50.1,0,0,0-14.14,9.31q-9.45,8.23-13.33,10.67l24.81,24.49q5.71,5.64,10.2,6.12Z" transform="translate(-54.05 -40.25)"/><path class="cls-1" d="M323.12,182.4c.22,0,.43-.14.43-.5v-1.51c0-11.16,0-12.38-.14-14.69-.14-2.09-.72-3.31-3.1-3.82-.58-.07-1.66-.14-2.52-.22s-1.37-.43-1.37-.72.36-.72,1.44-.72c4.18,0,10.66.22,11.38.22s8.93-.22,12-.22c1.08,0,1.44.29,1.44.72s-.36.72-1.08.72c-1.22.14-1.66.14-2.52.29-1.87.29-2.45,1.51-2.66,3.82s-.14,4.18-.14,15.34v12.67c0,6.84,0,12.17.36,15.19.22,2.38.79,3.6,3,4,1,.14,2.45.22,3.17.29s1.22.36,1.22.72-.58.72-1.44.72c-5,0-12.24-.22-13.54-.22s-6.77.22-10.3.22c-1.3,0-1.58-.36-1.58-.79s.43-.65,1.37-.65a21.15,21.15,0,0,0,2.23-.29c1.73-.36,2.16-1.73,2.38-4,.29-3,.43-7.56.43-14.4v-5.83a.41.41,0,0,0-.43-.43H300.66a.38.38,0,0,0-.43.43v7.49c0,6.84.07,9.79.36,12.89.22,2.09.86,3.46,3,3.82,1.51.22,2.23.29,3,.36s1.37.22,1.37.72-.36.72-1.44.72c-4.1,0-12.6-.22-13.32-.22s-8.21.22-10.51.22c-.79,0-1.58-.14-1.58-.65s.29-.79,1.22-.79,1.3-.14,2.23-.29c1.73-.22,2.38-2.09,2.52-4.25.22-3,.36-8.07.36-14.91V181.25c0-11.16-.07-12.82-.22-15.12-.14-2.52-.94-3.89-3.46-4.25-.86-.14-1.22-.14-2-.22-1.3-.07-1.44-.43-1.44-.79s.79-.65,1.58-.65c4.18,0,9.72.22,11.38.22,2.74,0,8.78-.22,11.88-.22,1.3,0,1.51.29,1.51.72s-.43.72-1.3.72a24.31,24.31,0,0,0-2.52.29c-1.94.43-2.3,2.09-2.45,4.18-.22,2.3-.22,5.26-.22,14.26v1.51c0,.36.22.5.43.5Z" transform="translate(-54.05 -40.25)"/><path class="cls-1" d="M363.08,199.75c-.36,0-.5.14-.65.5l-2.23,5.9a16.12,16.12,0,0,0-1.15,4.61c0,1.37.65,2,2.16,2.16.79.14,1.94.22,2.52.29,1.08,0,1.3.36,1.3.72,0,.58-.58.72-1.51.72-3.24,0-5.69-.22-9.5-.22-.79,0-5.54.22-9.15.22-1,0-1.44-.29-1.44-.72s.5-.72,1.37-.72a20.25,20.25,0,0,0,2.3-.29c2.52-.5,4-2.74,5.47-6.19l19.23-43.49c1.37-3.1,2.16-4.18,3-4.18s1.37,1,2.59,3.6c1.87,4,14,31.61,18.87,42.56,2.45,5.62,4,7.34,6.55,7.71a14.41,14.41,0,0,0,2.3.29c.94,0,1.37.29,1.37.72s-.5.72-1.87.72c-7.06,0-15.26-.14-19.87-.22-1.15,0-1.58-.22-1.58-.65s.36-.72,1-.86,1.08-.65.86-1.3l-4.82-11.45a.6.6,0,0,0-.58-.43Zm14.4-5.76c.43,0,.43-.22.36-.36l-6.34-15.41c-.22-.5-.36-.36-.5,0l-6.12,15.41c-.07.22.07.36.29.36Z" transform="translate(-54.05 -40.25)"/><path class="cls-1" d="M426.22,193.85c0,7.27-.22,12.46,1,14,1,1.37,2.38,1.73,8.35,1.73,4,0,6.26-.07,8.28-1.15,1.73-.79,3-2.67,3.74-6,.22-.79.36-1.37.94-1.37s.58.36.58,1.37a58.54,58.54,0,0,1-1.51,10.58c-.58,1.87-1.15,1.94-4,1.94-9.94,0-16.63-.43-24.27-.43-3.38,0-7.27.22-11.23.22-1,0-1.58-.14-1.58-.79,0-.43.43-.65,1.44-.65s1.66-.14,2.45-.29c2.59-.43,2.66-1.73,2.88-7.49.14-2.88.22-7.2.22-11.67V181.1c0-11.74-.07-13-.22-15.34-.14-2-.65-3.24-2.45-3.74a13.36,13.36,0,0,0-2.81-.36c-.79,0-1.51-.14-1.51-.72s.72-.72,2.16-.72c4.1,0,7.85.22,10.66.22.65,0,9.58-.22,12.17-.22,1.3,0,1.73.22,1.73.65,0,.65-.72.79-1.73.79a18.48,18.48,0,0,0-2.45.29c-1.94.36-2.45,1.73-2.59,4.25-.14,2.3-.22,3.74-.22,15.63Z" transform="translate(-54.05 -40.25)"/><path class="cls-1" d="M473.82,193.85c0,7.27-.22,12.46,1,14,1,1.37,2.38,1.73,8.35,1.73,4,0,6.26-.07,8.28-1.15,1.73-.79,3-2.67,3.74-6,.22-.79.36-1.37.94-1.37s.58.36.58,1.37a58.46,58.46,0,0,1-1.51,10.58c-.58,1.87-1.15,1.94-4,1.94-9.94,0-16.63-.43-24.27-.43-3.38,0-7.27.22-11.23.22-1,0-1.58-.14-1.58-.79,0-.43.43-.65,1.44-.65s1.66-.14,2.45-.29c2.59-.43,2.66-1.73,2.88-7.49.14-2.88.22-7.2.22-11.67V181.1c0-11.74-.07-13-.22-15.34-.14-2-.65-3.24-2.45-3.74a13.34,13.34,0,0,0-2.81-.36c-.79,0-1.51-.14-1.51-.72s.72-.72,2.16-.72c4.1,0,7.85.22,10.66.22.65,0,9.58-.22,12.17-.22,1.3,0,1.73.22,1.73.65,0,.65-.72.79-1.73.79a18.46,18.46,0,0,0-2.45.29c-1.94.36-2.45,1.73-2.59,4.25-.14,2.3-.22,3.74-.22,15.63Z" transform="translate(-54.05 -40.25)"/><path class="cls-2" d="M570.23,205.42c.58,4.68,1.3,6.48,3.67,7.2a20.68,20.68,0,0,0,4.1.65c.94,0,1.37.22,1.37.72s-.58.72-1.73.72c-6,0-11.81,0-20-.43-1.37-.07-1.66-.5-1.66-.86s.29-.58.79-.72c1.15-.43,1.22-.86.94-4.1l-2.59-25.78L540.27,210.6c-1.94,3.67-2.38,4.1-3,4.1-.79,0-1.22-.72-3.24-3.89-2.52-4-6.91-12.24-9.65-16.85-1.22-2.09-4.39-8-5.76-10.44l-2.09,20.31a55.22,55.22,0,0,0-.29,5.76c0,2.09.72,3,2.52,3.31a19.58,19.58,0,0,0,2.67.36c1.08,0,1.3.22,1.3.65s-.29.79-1.44.79c-3.17,0-7.13-.22-9.29-.22s-5.62.22-8.28.22c-.72,0-1.58,0-1.58-.72,0-.43.43-.72,1.44-.72.58-.07,1.37-.07,2.16-.22,2.09-.43,2.81-2.09,3.53-6.84l6.55-44.28c.29-2.16.79-2.81,1.51-2.81s1.3.72,2.81,3l20.59,34.49,19.73-34.85c1.15-1.87,1.73-2.59,2.45-2.59s1.15,1,1.37,2.81Z" transform="translate(-54.05 -40.25)"/><path class="cls-2" d="M592.3,159.87c0-18.4,0-21.71-.24-25.48-.24-4-1.18-5.9-5.07-6.73a27.87,27.87,0,0,0-3.42-.35c-.83-.12-1.53-.24-1.53-.71,0-.71.59-.94,1.89-.94,2.71,0,5.9,0,13.33.35.83,0,24.3,0,27-.12a19.66,19.66,0,0,0,5.43-.71,2.87,2.87,0,0,1,1.3-.47c.35,0,.47.47.47,1.06,0,.83-.71,2.24-.94,5.54-.12,1.77-.24,4-.47,7.08-.12,1.18-.47,2-.94,2-.71,0-.94-.59-.94-1.53a11.76,11.76,0,0,0-.59-3.89c-.83-2.71-3.3-3.89-8.49-4.37-2-.24-14.87-.35-16.16-.35-.47,0-.71.35-.71,1.18V164c0,.83.12,1.18.71,1.18,1.53,0,16,0,18.76-.24,3.19-.24,4.72-.59,5.9-2,.59-.71.94-1.18,1.42-1.18s.59.24.59.94-.59,2.71-.94,6.61c-.35,3.66-.35,6.37-.47,8-.12,1.18-.35,1.77-.83,1.77-.71,0-.83-.94-.83-1.89a10.67,10.67,0,0,0-.47-3.3c-.47-1.77-1.89-3.42-6.13-3.89-3.19-.35-14.87-.59-16.87-.59a.75.75,0,0,0-.83.83v10.38c0,4-.12,17.7,0,20.17.24,4.84.94,7.43,3.89,8.61,2,.83,5.19,1.06,9.79,1.06a39.1,39.1,0,0,0,10.62-1.06c3.78-1.18,5.07-3.66,6-8.73.24-1.3.47-1.77,1.06-1.77s.71.94.71,1.77-.94,9-1.53,11.44c-.83,3.07-1.77,3.07-6.37,3.07-8.73,0-12.62-.24-17.22-.35s-10.15-.35-14.75-.35c-2.83,0-5.66.47-8.73.35-1.3,0-1.89-.24-1.89-.94,0-.35.59-.59,1.3-.71a15.32,15.32,0,0,0,2.71-.35c2.48-.59,4-2.24,4.25-11.09.12-4.6.24-10.62.24-21.12Z" transform="translate(-54.05 -40.25)"/><image width="344" height="285" transform="scale(0.72)" xlink:href="../website-images/bhashield.png"/></svg>